<svg width="24" height="24" viewBox="0 0 24 24" fill="none" xmlns="http://www.w3.org/2000/svg">
<g clip-path="url(#clip0_81_62)">
<path d="M12 15.4286C14.1302 15.4286 15.8571 13.7017 15.8571 11.5714C15.8571 9.4412 14.1302 7.71429 12 7.71429C9.86975 7.71429 8.14285 9.4412 8.14285 11.5714C8.14285 13.7017 9.86975 15.4286 12 15.4286Z" stroke="#FFE7CC" stroke-width="1.71429" stroke-linecap="round" stroke-linejoin="round"/>
<path d="M18.8571 23.1428C18.2082 21.8836 17.225 20.8274 16.0154 20.0901C14.8058 19.3527 13.4166 18.9626 12 18.9626C10.5834 18.9626 9.19414 19.3527 7.98457 20.0901C6.77501 20.8274 5.79183 21.8836 5.14285 23.1428" stroke="#FFE7CC" stroke-width="1.71429" stroke-linecap="round" stroke-linejoin="round"/>
<path d="M20.5714 18.1029C21.7879 16.5161 22.5362 14.6206 22.7316 12.6308C22.927 10.641 22.5616 8.63614 21.677 6.8431C20.7923 5.05006 19.4235 3.54034 17.7255 2.48469C16.0275 1.42903 14.068 0.869568 12.0686 0.869568C10.0692 0.869568 8.10963 1.42903 6.41162 2.48469C4.71361 3.54034 3.34486 5.05006 2.46018 6.8431C1.5755 8.63614 1.21019 10.641 1.40556 12.6308C1.60093 14.6206 2.34919 16.5161 3.56571 18.1029" stroke="#FFE7CC" stroke-width="1.71429" stroke-linecap="round" stroke-linejoin="round"/>
</g>
<defs>
<clipPath id="clip0_81_62">
<rect width="24" height="24" fill="white"/>
</clipPath>
</defs>
</svg>
