<svg width="160" height="160" viewBox="0 0 160 160" fill="none" xmlns="http://www.w3.org/2000/svg">
<rect width="160" height="160" fill="#201F24"/>
<path d="M40 106.727C40 115.778 42.1818 122.889 46.5455 128.061C50.9091 133.232 56.7677 135.818 64.1212 135.818C71.9596 135.818 77.9798 133.232 82.1818 128.061C86.303 122.889 88.3636 115.818 88.3636 106.848L89.3333 105.152L89.3333 87.9394L120 87.9394L120 71.4545L40 71.4546L40 106.727ZM76.6061 104.788C76.6061 109.475 75.6768 112.95 73.8182 115.212C71.8788 117.556 68.9293 118.727 64.9697 118.727C61.0101 118.727 58.101 117.556 56.2424 115.212C54.303 112.95 53.3333 109.475 53.3333 104.788L53.3333 87.9394L76.6061 87.9394L76.6061 104.788ZM80.1212 114.606L120 140.545L120 121.758L84.9697 100.303L80.1212 114.606Z" fill="#FFA845"/>
<path d="M40 53.2727C40 44.2222 42.1818 37.1111 46.5455 31.9394C50.9091 26.7677 56.7677 24.1818 64.1212 24.1818C71.9596 24.1818 77.9798 26.7677 82.1818 31.9394C86.303 37.1111 88.3636 44.1818 88.3636 53.1515L89.3333 54.8485L89.3333 72.0606L120 72.0606L120 88.5455L40 88.5455L40 53.2727ZM76.6061 55.2121C76.6061 50.5253 75.6768 47.0505 73.8182 44.7879C71.8788 42.4445 68.9293 41.2727 64.9697 41.2727C61.0101 41.2727 58.101 42.4445 56.2424 44.7879C54.303 47.0505 53.3333 50.5253 53.3333 55.2121L53.3333 72.0606L76.6061 72.0606L76.6061 55.2121ZM80.1212 45.3939L120 19.4546L120 38.2424L84.9697 59.697L80.1212 45.3939Z" fill="#FFA845"/>
</svg>
