<svg width="131" height="24" viewBox="0 0 131 24" fill="none" xmlns="http://www.w3.org/2000/svg">
<path d="M8.14408 1.5641C10.1779 1.5641 11.7551 2.04273 12.8754 3C14.013 3.94017 14.5818 5.19658 14.5818 6.76923C14.5818 8.49573 14.0216 9.81197 12.9013 10.7179C11.7809 11.6239 10.2038 12.0769 8.16994 12.0769L7.75627 12.3077H4.36936V18.4872H0V1.5641H8.14408ZM7.52358 9.17949C8.38539 9.17949 9.03174 9.00855 9.46265 8.66667C9.89355 8.32479 10.109 7.77778 10.109 7.02564C10.109 6.2906 9.89355 5.75214 9.46265 5.41026C9.03174 5.06838 8.38539 4.89744 7.52358 4.89744H4.36936V9.17949H7.52358ZM10.1349 10.1026L15.5901 18.4872H10.6778L6.30843 11.0769L10.1349 10.1026Z" fill="#FFA845"/>
<path d="M24.4223 18.7436C22.9917 18.7436 21.7507 18.4786 20.6993 17.9487C19.6652 17.4188 18.8637 16.6581 18.2949 15.6667C17.7261 14.6752 17.4417 13.4786 17.4417 12.0769C17.4417 10.6752 17.7261 9.47863 18.2949 8.48718C18.8637 7.49573 19.6565 6.73504 20.6735 6.20513C21.7077 5.67521 22.8883 5.41026 24.2155 5.41026C25.5772 5.41026 26.732 5.67521 27.68 6.20513C28.6452 6.71795 29.3777 7.4359 29.8776 8.35897C30.3774 9.26496 30.6274 10.3077 30.6274 11.4872C30.6274 11.7949 30.6187 12.1026 30.6015 12.4103C30.5843 12.7179 30.5584 12.9744 30.5239 13.1795H20.2857V10.8462H28.5849L26.4907 11.641C26.4907 10.6154 26.3011 9.82906 25.9219 9.28205C25.5599 8.73504 24.9911 8.46154 24.2155 8.46154C23.664 8.46154 23.19 8.58974 22.7935 8.84615C22.4143 9.10256 22.1213 9.50427 21.9145 10.0513C21.7249 10.5983 21.6301 11.2991 21.6301 12.1538C21.6301 12.9915 21.7421 13.6752 21.9662 14.2051C22.1903 14.7179 22.5091 15.094 22.9228 15.3333C23.3365 15.5556 23.8363 15.6667 24.4223 15.6667C25.0773 15.6667 25.5944 15.5385 25.9736 15.2821C26.37 15.0256 26.663 14.6667 26.8526 14.2051L30.3688 15.359C30.1275 16.094 29.7052 16.7179 29.102 17.2308C28.5159 17.7265 27.8092 18.1026 26.9819 18.359C26.1718 18.6154 25.3186 18.7436 24.4223 18.7436Z" fill="#FFA845"/>
<path d="M40.1702 18.7436C38.7396 18.7436 37.4986 18.4786 36.4472 17.9487C35.413 17.4188 34.6115 16.6581 34.0427 15.6667C33.4739 14.6752 33.1896 13.4786 33.1896 12.0769C33.1896 10.6752 33.4739 9.47863 34.0427 8.48718C34.6115 7.49573 35.4044 6.73504 36.4213 6.20513C37.4555 5.67521 38.6362 5.41026 39.9634 5.41026C41.325 5.41026 42.4798 5.67521 43.4278 6.20513C44.3931 6.71795 45.1256 7.4359 45.6254 8.35897C46.1253 9.26496 46.3752 10.3077 46.3752 11.4872C46.3752 11.7949 46.3666 12.1026 46.3494 12.4103C46.3321 12.7179 46.3063 12.9744 46.2718 13.1795H36.0335V10.8462H44.3327L42.2385 11.641C42.2385 10.6154 42.0489 9.82906 41.6697 9.28205C41.3078 8.73504 40.739 8.46154 39.9634 8.46154C39.4118 8.46154 38.9378 8.58974 38.5414 8.84615C38.1622 9.10256 37.8692 9.50427 37.6623 10.0513C37.4727 10.5983 37.3779 11.2991 37.3779 12.1538C37.3779 12.9915 37.49 13.6752 37.714 14.2051C37.9381 14.7179 38.257 15.094 38.6707 15.3333C39.0843 15.5556 39.5842 15.6667 40.1702 15.6667C40.8252 15.6667 41.3423 15.5385 41.7215 15.2821C42.1179 15.0256 42.4109 14.6667 42.6005 14.2051L46.1167 15.359C45.8754 16.094 45.4531 16.7179 44.8498 17.2308C44.2638 17.7265 43.5571 18.1026 42.7298 18.359C41.9197 18.6154 41.0665 18.7436 40.1702 18.7436Z" fill="#FFA845"/>
<path d="M53.9531 0.230769V14.1282C53.9531 14.6923 54.0479 15.094 54.2375 15.3333C54.4271 15.5726 54.746 15.6923 55.1941 15.6923C55.4527 15.6923 55.6681 15.6752 55.8405 15.641C56.0128 15.6068 56.2197 15.5556 56.461 15.4872L56.1766 18.1026C55.8663 18.2906 55.4613 18.4444 54.9614 18.5641C54.4616 18.6838 53.9704 18.7436 53.4877 18.7436C52.1089 18.7436 51.1092 18.4274 50.4887 17.7949C49.8682 17.1624 49.5579 16.1282 49.5579 14.6923V0.230769H53.9531Z" fill="#FFA845"/>
<path d="M67.2977 1.5641C69.3316 1.5641 70.9087 2.04273 72.0291 3C73.1666 3.94017 73.7354 5.19658 73.7354 6.76923C73.7354 8.49573 73.1753 9.81197 72.0549 10.7179C70.9346 11.6239 69.3575 12.0769 67.3236 12.0769L66.9099 12.3077H63.523V18.4872H59.1537V1.5641H67.2977ZM66.6772 9.17949C67.5391 9.17949 68.1854 9.00855 68.6163 8.66667C69.0472 8.32479 69.2627 7.77778 69.2627 7.02564C69.2627 6.2906 69.0472 5.75214 68.6163 5.41026C68.1854 5.06838 67.5391 4.89744 66.6772 4.89744H63.523V9.17949H66.6772ZM69.2885 10.1026L74.7438 18.4872H69.8315L65.4621 11.0769L69.2885 10.1026Z" fill="#FFA845"/>
<path d="M79.5914 4.17949C78.6951 4.17949 78.0402 4.01709 77.6265 3.69231C77.2301 3.35043 77.0319 2.82051 77.0319 2.10256C77.0319 1.36752 77.2301 0.837606 77.6265 0.51282C78.0402 0.17094 78.6951 0 79.5914 0C80.4705 0 81.1168 0.17094 81.5305 0.51282C81.9442 0.837606 82.151 1.36752 82.151 2.10256C82.151 2.82051 81.9442 3.35043 81.5305 3.69231C81.1168 4.01709 80.4705 4.17949 79.5914 4.17949ZM81.789 5.66667V18.4872H77.3938V5.66667H81.789Z" fill="#FFA845"/>
<path d="M90.4506 18.7436C89.382 18.7436 88.4426 18.4872 87.6325 17.9744C86.8396 17.4444 86.2191 16.6838 85.771 15.6923C85.3401 14.7009 85.1246 13.5128 85.1246 12.1282C85.1246 10.6923 85.3487 9.47863 85.7968 8.48718C86.2622 7.49573 86.9 6.73504 87.7101 6.20513C88.5374 5.67521 89.4854 5.41026 90.554 5.41026C91.7261 5.41026 92.6654 5.76923 93.3721 6.48718C94.096 7.18803 94.5614 8.08547 94.7683 9.17949L94.3546 9.71795V0.230769H98.7498V18.4872H94.82L94.5356 14.1282L95.0527 14.5128C94.9492 15.3675 94.6821 16.1111 94.2512 16.7436C93.8375 17.3761 93.3032 17.8718 92.6482 18.2308C92.0105 18.5727 91.2779 18.7436 90.4506 18.7436ZM91.976 15.5385C92.4759 15.5385 92.8981 15.4103 93.2429 15.1538C93.6048 14.8803 93.8806 14.4786 94.0702 13.9487C94.2598 13.4188 94.3546 12.7692 94.3546 12C94.3546 11.2821 94.2598 10.6752 94.0702 10.1795C93.8978 9.66667 93.6307 9.28205 93.2687 9.02564C92.924 8.75214 92.5017 8.61539 92.0019 8.61539C91.2435 8.61539 90.6402 8.89744 90.1921 9.46154C89.7612 10.0085 89.5457 10.8803 89.5457 12.0769C89.5457 13.2735 89.7612 14.1538 90.1921 14.7179C90.623 15.265 91.2176 15.5385 91.976 15.5385Z" fill="#FFA845"/>
<path d="M115.192 2.23077L115.554 5.15385C115.45 5.11966 115.347 5.10256 115.244 5.10256C115.14 5.08547 115.037 5.07692 114.933 5.07692C114.175 5.07692 113.606 5.26496 113.227 5.64102C112.865 6 112.684 6.45299 112.684 7L111.133 6.4359C111.133 5.73504 111.262 5.05983 111.521 4.41026C111.779 3.76068 112.176 3.23077 112.71 2.82051C113.261 2.41026 113.951 2.20513 114.778 2.20513C114.83 2.20513 114.89 2.20513 114.959 2.20513C115.045 2.20513 115.123 2.21367 115.192 2.23077ZM110.745 15.641C112.245 15.641 113.391 15.9573 114.184 16.5897C114.994 17.2051 115.399 18.094 115.399 19.2564C115.399 20.3162 115.106 21.1966 114.52 21.8974C113.934 22.5983 113.106 23.1197 112.038 23.4615C110.986 23.8205 109.737 24 108.289 24C105.945 24 104.256 23.7094 103.221 23.1282C102.187 22.547 101.67 21.7607 101.67 20.7692C101.67 20.0513 101.963 19.4701 102.549 19.0256C103.135 18.5812 104.109 18.3419 105.471 18.3077L105.367 18.7179C104.316 18.5812 103.532 18.2735 103.015 17.7949C102.497 17.3162 102.239 16.6667 102.239 15.8462C102.239 15.0256 102.566 14.359 103.221 13.8462C103.876 13.3333 104.747 13.0513 105.833 13L107.436 13.7436H107.022C106.35 13.7778 105.876 13.8889 105.6 14.0769C105.324 14.265 105.186 14.4957 105.186 14.7692C105.186 15.0598 105.307 15.2821 105.548 15.4359C105.79 15.5726 106.152 15.641 106.634 15.641H110.745ZM108.315 21.1795C109.142 21.1795 109.823 21.1197 110.357 21C110.909 20.8974 111.322 20.7436 111.598 20.5385C111.874 20.3504 112.012 20.1282 112.012 19.8718C112.012 19.6154 111.917 19.4103 111.727 19.2564C111.538 19.1197 111.193 19.0513 110.693 19.0513H106.065C105.738 19.0513 105.471 19.1368 105.264 19.3077C105.074 19.4786 104.979 19.6923 104.979 19.9487C104.979 20.3419 105.272 20.641 105.859 20.8462C106.445 21.0684 107.263 21.1795 108.315 21.1795ZM108.47 5.41026C109.78 5.41026 110.9 5.5812 111.831 5.92308C112.762 6.26496 113.468 6.76068 113.951 7.41026C114.451 8.04274 114.701 8.82906 114.701 9.76923C114.701 10.6923 114.451 11.4786 113.951 12.1282C113.468 12.7778 112.762 13.2735 111.831 13.6154C110.9 13.9402 109.78 14.1026 108.47 14.1026C106.419 14.1026 104.859 13.7265 103.79 12.9744C102.739 12.2222 102.213 11.1538 102.213 9.76923C102.213 8.82906 102.454 8.04274 102.937 7.41026C103.437 6.76068 104.152 6.26496 105.083 5.92308C106.014 5.5812 107.143 5.41026 108.47 5.41026ZM108.47 7.89744C107.901 7.89744 107.436 8.05983 107.074 8.38461C106.729 8.7094 106.557 9.17094 106.557 9.76923C106.557 10.3504 106.729 10.8034 107.074 11.1282C107.436 11.453 107.901 11.6154 108.47 11.6154C109.021 11.6154 109.478 11.453 109.84 11.1282C110.202 10.8034 110.383 10.3504 110.383 9.76923C110.383 9.17094 110.202 8.7094 109.84 8.38461C109.478 8.05983 109.021 7.89744 108.47 7.89744Z" fill="#FFA845"/>
<path d="M124.23 18.7436C122.799 18.7436 121.558 18.4786 120.507 17.9487C119.473 17.4188 118.671 16.6581 118.102 15.6667C117.534 14.6752 117.249 13.4786 117.249 12.0769C117.249 10.6752 117.534 9.47863 118.102 8.48718C118.671 7.49573 119.464 6.73504 120.481 6.20513C121.515 5.67521 122.696 5.41026 124.023 5.41026C125.385 5.41026 126.539 5.67521 127.487 6.20513C128.453 6.71795 129.185 7.4359 129.685 8.35897C130.185 9.26496 130.435 10.3077 130.435 11.4872C130.435 11.7949 130.426 12.1026 130.409 12.4103C130.392 12.7179 130.366 12.9744 130.331 13.1795H120.093V10.8462H128.392L126.298 11.641C126.298 10.6154 126.108 9.82906 125.729 9.28205C125.367 8.73504 124.799 8.46154 124.023 8.46154C123.471 8.46154 122.997 8.58974 122.601 8.84615C122.222 9.10256 121.929 9.50427 121.722 10.0513C121.532 10.5983 121.438 11.2991 121.438 12.1538C121.438 12.9915 121.55 13.6752 121.774 14.2051C121.998 14.7179 122.317 15.094 122.73 15.3333C123.144 15.5556 123.644 15.6667 124.23 15.6667C124.885 15.6667 125.402 15.5385 125.781 15.2821C126.177 15.0256 126.47 14.6667 126.66 14.2051L130.176 15.359C129.935 16.094 129.513 16.7179 128.909 17.2308C128.323 17.7265 127.617 18.1026 126.789 18.359C125.979 18.6154 125.126 18.7436 124.23 18.7436Z" fill="#FFA845"/>
</svg>
